<svg id="Layer_1" data-name="Layer 1" xmlns="http://www.w3.org/2000/svg" viewBox="0 0 250 250"><defs><style>.cls-1{fill:#00008b;}</style></defs><title>bloglogo</title><path class="cls-1" d="M178.83,76.4H144.37V214.55a91.49,91.49,0,0,0,34.46-15.35Z"/><path class="cls-1" d="M69,112.89H33.83c-.12.91-.24,1.82-.33,2.75v18.05A91.82,91.82,0,0,0,69,197.6Z"/><path class="cls-1" d="M105.63,86.07H71.17V199.2a91.49,91.49,0,0,0,34.46,15.35Z"/><path class="cls-1" d="M142.23,43.2H107.77V215a91.44,91.44,0,0,0,34.46,0Z"/><path class="cls-1" d="M181,127.3v70.3a91.82,91.82,0,0,0,35.53-63.92V127.3Z"/></svg>