<svg id="Layer_1" data-name="Layer 1" xmlns="http://www.w3.org/2000/svg" viewBox="0 0 800 200"><defs><style>.cls-1{fill:#00008b;}</style></defs><title>header-img</title><path class="cls-1" d="M804.49,137.12A45.23,45.23,0,0,1,792,134.85c-4.06-1.25-8-2.73-12-4.3-7.89-3.14-15.69-6.48-23.56-9.63a412.23,412.23,0,0,0-48.13-16.27c-8.18-2.2-16.45-4-24.77-5.59-4.15-.82-8.34-1.45-12.52-2.12s-8.38-1.19-12.59-1.62a376.69,376.69,0,0,0-50.7-2.17c-16.91.4-33.82,1.8-50.69,3.48s-33.71,3.72-50.54,5.85l-25.23,3.31L456,109.15,405.59,116q-25.22,3.44-50.48,6.63t-50.53,6.23l-25.29,2.92L254,134.53c-16.88,1.74-33.76,3.49-50.66,5-8.45.77-16.9,1.54-25.36,2.21l-12.69,1-12.69.93-12.69.93-12.7.84c-8.46.6-16.94,1-25.41,1.51l-6.35.36-6.36.29-12.72.57c-8.48.4-17,.59-25.44.92s-17,.41-25.45.62L0,150v-1.27l26.54-.33q3.32,0,6.63-.14l6.63-.21,13.26-.41c17.68-.68,35.35-1.57,53-2.86,8.83-.53,17.64-1.37,26.46-2.1s17.61-1.66,26.41-2.55,17.58-2,26.37-3,17.55-2.24,26.32-3.4c17.53-2.39,35-5.15,52.45-8.08,8.72-1.51,17.42-3.1,26.12-4.67l13-2.52c4.34-.84,8.69-1.66,13-2.58,8.66-1.79,17.33-3.54,26-5.47l13-2.83,12.94-2.94c8.63-1.94,17.22-4,25.83-6.08s17.19-4.19,25.76-6.39c17.16-4.31,34.28-8.82,51.4-13.33s34.22-9.11,51.4-13.41,34.43-8.42,51.9-11.61c8.76-1.46,17.53-2.92,26.41-3.55l3.33-.28c1.11-.1,2.23-.09,3.34-.13,2.24-.06,4.44-.16,6.7-.17a111.5,111.5,0,0,1,13.34.93C645.28,53,662.2,59.46,677.78,68s30,19,43.62,30.4,26.36,23.71,38.84,36.27c6.25,6.27,12.42,12.62,18.74,18.8,3.17,3.09,6.38,6.13,9.74,9a57.35,57.35,0,0,0,5.27,4c1.83,1.17,3.82,2.34,6,2.45v.25c-2.3-.1-4.31-1.27-6.17-2.43a57.68,57.68,0,0,1-5.34-4c-3.41-2.83-6.66-5.85-9.86-8.91-6.4-6.13-12.63-12.41-18.94-18.62-12.6-12.42-25.47-24.59-39.1-35.85S692.53,77.76,677,69.42s-32.27-14.59-49.71-16.8a109.22,109.22,0,0,0-13.13-.86c-2.16,0-4.38.14-6.57.2-1.1.05-2.2,0-3.29.15L601,52.4c-8.78.66-17.49,2.15-26.19,3.63-17.36,3.24-34.55,7.44-51.69,11.8-34.27,8.8-68.42,18.23-102.76,26.89-8.58,2.21-17.19,4.28-25.78,6.42s-17.22,4.16-25.86,6.11l-13,3-13,2.83c-8.65,1.91-17.34,3.64-26,5.41-4.34.91-8.69,1.72-13,2.55l-13.05,2.49c-8.72,1.56-17.44,3.13-26.17,4.62-17.48,2.9-35,5.62-52.55,8-8.78,1.14-17.56,2.39-26.36,3.34s-17.6,2.07-26.42,2.86-17.63,1.77-26.46,2.41-17.65,1.48-26.5,2c-17.67,1.19-35.37,2-53.07,2.58l-13.28.34-6.64.17q-3.32.1-6.64.11L0,150v-1.27l25.44-.12c8.48-.16,17-.25,25.44-.48q25.44-.69,50.85-2c8.47-.47,16.94-.88,25.41-1.46s16.93-1.06,25.39-1.74l12.69-1,12.68-1.08c8.45-.69,16.9-1.48,25.35-2.28q25.34-2.37,50.63-5.22l25.28-2.93,25.26-3.1q25.25-3.18,50.47-6.57l50.43-6.9,50.43-7c16.81-2.31,33.63-4.57,50.48-6.65s33.71-4.07,50.61-5.73,33.85-3,50.86-3.35A365.77,365.77,0,0,1,658.6,93.7c4.23.46,8.43,1.11,12.64,1.71s8.39,1.36,12.56,2.22c8.35,1.62,16.64,3.52,24.83,5.78a394.47,394.47,0,0,1,48.1,16.77c7.85,3.24,15.61,6.67,23.45,9.89,3.92,1.61,7.88,3.14,11.91,4.42a44.88,44.88,0,0,0,12.41,2.39Z"/><path class="cls-1" d="M800,50.86l-9.11.31c-5.93.33-14.63.91-25.59,2.55a320.41,320.41,0,0,0-39,8.45C711.4,66.34,694.87,71.86,677,78.41s-37.1,14-57.74,21.1-42.63,14-65.75,19.75c-5.77,1.47-11.63,2.78-17.53,4.11l-8.9,1.9-9,1.69c-3,.6-6,1-9.09,1.5s-6.1,1-9.17,1.36c-6.14.77-12.31,1.63-18.52,2.31L472,133.2c-3.12.35-6.24.63-9.37,1l-9.4.93-9.44.82-9.45.85-9.47.77-9.48.76-9.49.69c-25.32,1.82-50.66,3.29-75.62,4.55s-49.53,2.13-73.31,3-46.78,1.33-68.58,1.82l-31.77.61-29.69.38c-19,.22-36.48.38-51.95.41s-28.95.09-40.05,0L0,149.52v-.25l34.89-.52,40-.67,51.93-1,61.44-1.36c21.8-.49,44.78-1.17,68.56-1.86s48.34-1.54,73.3-2.55,50.3-2.18,75.62-3.73l9.5-.58,9.49-.65,9.48-.66,9.46-.75,9.43-.78,9.4-.89c3.13-.31,6.26-.58,9.37-.91l9.33-1c6.21-.62,12.36-1.56,18.5-2.35,3.07-.4,6.1-.95,9.14-1.41s6.07-.93,9.07-1.55l9-1.74,8.86-2c5.87-1.4,11.7-2.8,17.43-4.35q17.23-4.55,33.61-9.77c5.44-1.75,10.82-3.5,16.11-5.3,2.65-.87,5.28-1.78,7.89-2.68s5.2-1.79,7.77-2.71c10.28-3.61,20.21-7.31,29.85-10.84s18.93-7,27.9-10.18c17.91-6.46,34.52-12,49.52-15.89a306.24,306.24,0,0,1,39.32-7.92c11-1.42,19.77-1.82,25.73-2l9.12-.05Z"/></svg>