<?xml version="1.0" encoding="utf-8"?>
<!-- Generator: Adobe Illustrator 20.0.0, SVG Export Plug-In . SVG Version: 6.00 Build 0)  -->
<svg version="1.1" xmlns="http://www.w3.org/2000/svg" xmlns:xlink="http://www.w3.org/1999/xlink" x="0px" y="0px"
	 viewBox="0 0 889 536" style="enable-background:new 0 0 889 536;" xml:space="preserve">
<style type="text/css">
	.st0{fill:url(#SVGID_1_);}
	.st1{opacity:8.000000e-02;}
	.st2{fill:#00B750;}
	.st3{fill:#231F20;}
	.st4{fill:#B6FFB2;}
	.st5{fill:#2CED00;}
	.st6{fill:#A8E5A3;}
</style>
<g id="Layer_4">
	
		<radialGradient id="SVGID_1_" cx="444.5" cy="268" r="367.0179" gradientTransform="matrix(1 0 0 0.7 0 80.4)" gradientUnits="userSpaceOnUse">
		<stop  offset="0" style="stop-color:#F0F0F0"/>
		<stop  offset="1" style="stop-color:#FFFFFF"/>
	</radialGradient>
	<rect class="st0" width="889" height="536"/>
</g>
<g id="Layer_3">
	<g class="st1">
		
			<image style="overflow:visible;" width="717" height="542" xlink:href="B122C2C8.png"  transform="matrix(0.24 0 0 0.24 408.5567 408.0374)">
		</image>
	</g>
	<g class="st1">
		
			<image style="overflow:visible;" width="1134" height="782" xlink:href="B122C2C9.png"  transform="matrix(0.24 0 0 0.24 483.5567 307.0061)">
		</image>
	</g>
	<g class="st1">
		
			<image style="overflow:visible;" width="457" height="391" xlink:href="B122C2CF.png"  transform="matrix(0.24 0 0 0.24 658.5567 278.1336)">
		</image>
	</g>
	<g class="st1">
		
			<image style="overflow:visible;" width="405" height="421" xlink:href="B122C2CA.png"  transform="matrix(0.24 0 0 0.24 333.5567 379.17)">
		</image>
	</g>
	<g class="st1">
		
			<image style="overflow:visible;" width="613" height="541" xlink:href="B122C2CB.png"  transform="matrix(0.24 0 0 0.24 183.5567 292.5674)">
		</image>
	</g>
	<g class="st1">
		
			<image style="overflow:visible;" width="613" height="481" xlink:href="B122C2C6.png"  transform="matrix(0.24 0 0 0.24 483.5567 451.2762)">
		</image>
	</g>
</g>
<g id="Layer_2">
	<g>
		<polygon class="st2" points="719.6,284.3 719.6,314.1 694.6,328.6 694.6,299.7 		"/>
		<g>
			<path class="st3" d="M718.1,284.3c0,9.8-1,20.1,0,29.8c-0.2-1.4,1.4-1.2-0.2-0.8c-1,0.3-2.1,1.2-3,1.7c-2.9,1.7-5.7,3.3-8.6,5
				c-4.2,2.4-8.3,4.8-12.5,7.2c0.8,0.4,1.5,0.8,2.3,1.2c0-4.8,0-9.6,0-14.4c0-3.3,0-6.6,0-9.9c0-1,0.2-2.3,0-3.3
				c-0.5-1.8,1-0.7-0.7,0c4.5-1.9,8.7-5.4,12.9-7.9c4-2.5,8.1-5,12.1-7.5c1.6-1,0.1-3.6-1.6-2.6c-4.3,2.7-8.6,5.3-12.9,8
				c-3,1.8-6,3.7-8.9,5.5c-1,0.6-2.9,1.3-3.6,2.4c-0.7,1-0.3,2.9-0.3,4c0,3.3,0,6.6,0,9.8c0,5.3,0,10.6,0,15.9
				c0,1.2,1.3,1.8,2.3,1.2c8.3-4.8,16.7-9.6,25-14.4c0.5-0.3,0.7-0.8,0.7-1.3c0-10,0-19.9,0-29.9
				C721.1,282.3,718.1,282.4,718.1,284.3z"/>
		</g>
	</g>
	<g>
		<polygon class="st4" points="719.6,284.3 694.6,299.7 669.6,285.3 694.6,270.8 		"/>
		<g>
			<path class="st3" d="M718.8,283c-4,2.5-8.1,5-12.1,7.5c-4.2,2.6-9.1,4.9-12.9,7.9c1.1-0.9,1.7,0.6,0.6-0.5
				c-0.7-0.7-2.1-1.2-3-1.7c-2.9-1.7-5.7-3.3-8.6-5c-4.2-2.4-8.3-4.8-12.5-7.2c0,0.9,0.1,1.7,0.1,2.6c8.2-4.7,17.2-9,25-14.4
				c-1.2,0.8-1.7-0.6-0.5,0.5c0.7,0.6,2,1.1,2.8,1.5c2.8,1.5,5.5,3,8.3,4.5c4.3,2.3,8.6,4.6,12.9,7c1.7,0.9,3.1-1.7,1.4-2.6
				c-4.6-2.5-9.2-4.9-13.8-7.4c-2.8-1.5-5.6-3-8.4-4.5c-1.1-0.6-2.5-1.8-3.8-1.7c-1.1,0.1-2.6,1.4-3.6,1.9c-2.9,1.7-5.8,3.3-8.6,5
				c-4.5,2.6-8.9,5.1-13.4,7.7c-1,0.6-0.9,2.1,0.1,2.6c8.3,4.8,16.7,9.6,25,14.4c0.5,0.3,1.1,0.2,1.5,0c8.3-5.1,16.7-10.3,25-15.4
				C722,284.5,720.4,282,718.8,283z"/>
		</g>
	</g>
	<g>
		<polygon class="st5" points="694.6,299.7 694.6,328.6 669.6,314.1 669.6,285.3 		"/>
		<g>
			<path class="st3" d="M693.1,299.7c0,9.6,0,19.2,0,28.9c0.7-0.5,1.5-0.9,2.2-1.4c-4.2-2.4-8.3-4.8-12.5-7.2
				c-2.8-1.6-5.5-3.2-8.3-4.8c-1-0.6-1.9-1.3-3-1.7c-0.7-0.3-1.5-1.3-0.9-0.1c0.7,1.3,0.3-0.3,0.4-0.8c0.1-1,0-2.1,0-3
				c0-3.3,0-6.6,0-9.9c0-4.8,0-9.6,0-14.4c-0.7,0.5-1.5,0.9-2.2,1.4c8.3,4.8,16.7,9.6,25,14.4c1.7,1,3.1-1.7,1.4-2.6
				c-8.3-4.8-16.7-9.6-25-14.4c-1-0.6-2.2,0.3-2.2,1.4c0,9.6,0,19.2,0,28.9c0,0.5,0.3,1,0.8,1.3c8.3,4.8,16.7,9.6,25,14.4
				c1,0.6,2.2-0.3,2.2-1.4c0-9.6,0-19.2,0-28.9C696.1,297.7,693.1,297.8,693.1,299.7z"/>
		</g>
	</g>
	<g>
		<polygon class="st2" points="669.6,314.1 669.6,343 619.6,371.9 619.6,256.4 594.6,299.7 569.6,285.3 569.6,343 569.6,400.7 
			519.6,429.6 519.6,227.5 569.6,198.7 594.6,242 619.6,169.8 669.6,140.9 669.6,285.3 		"/>
		<g>
			<path class="st3" d="M668.1,314.2c0,5.9,0,11.9,0,17.8c0,3.1-0.4,6.5,0,9.6c0.3,2.1-0.6,0.6,0.7,0.2c-0.4,0.1-0.7,0.5-1,0.6
				c-5.2,1.8-10.3,6-15.1,8.7c-7,4-13.9,8-20.9,12.1c-4.3,2.5-8.6,5-13,7.5c0.8,0.4,1.5,0.8,2.3,1.2c0-33.7,0-67.3,0-101
				c0-4.8,0-9.6,0-14.5c0-1.5-2.1-1.9-2.8-0.7c-8.3,14.4-16.7,28.9-25,43.3c0.7-0.2,1.4-0.4,2-0.6c-8.3-4.8-16.7-9.6-25-14.4
				c-1-0.6-2.2,0.3-2.2,1.4c0,20.7,0,41.3,0,62c0,14.7,0,29.5,0,44.2c0,2.4-0.2,4.9,0,7.3c0,0.5-0.1,1.2,0,1.7
				c0-0.2,1.2-0.9,0.3-0.9c-1.2,0-3.6,2.1-4.6,2.6c-2.8,1.6-5.6,3.2-8.4,4.8c-12.2,7.1-24.4,14.1-36.7,21.2c0.8,0.4,1.5,0.8,2.3,1.2
				c0-33.7,0-67.4,0-101c0-23.2,0-46.3,0-69.5c0-7.6,0-15.3,0-22.9c0-2.1,0-4.3,0-6.4c0-0.3,0.2-1.4,0-1.7c-0.6-1.1,0.9,0.3-0.7,0.7
				c2.9-0.8,6-3.5,8.6-5c5.6-3.2,11.2-6.5,16.8-9.7c8.2-4.7,16.4-9.5,24.6-14.2c-0.7-0.2-1.4-0.3-2.1-0.5
				c8.3,14.4,16.7,28.9,25,43.3c0.7,1.2,2.3,0.7,2.7-0.4c6.3-18.3,12.7-36.6,19-55c1.5-4.3,3-8.6,4.5-12.9c0.4-1.1,1-2.3,1.2-3.4
				c0.2-1.5,0-0.2-0.1-0.1c7.9-5,16.2-9.4,24.3-14c8.5-4.9,17-9.8,25.4-14.7c-0.8-0.4-1.5-0.8-2.3-1.2c0,21.9,0,43.8,0,65.7
				c0,25.7,0,51.4,0,77C668.1,293.9,668.1,304,668.1,314.2c0,1.9,3,1.9,3-0.1c0-18.1,0-36.2,0-54.3c0-31.3,0-62.6,0-93.9
				c0-8.3,0-16.7,0-25c0-1.2-1.3-1.8-2.3-1.2c-7.3,4.2-14.7,8.5-22,12.7c-5.5,3.2-11,6.4-16.6,9.6c-3.4,2-7.3,3.7-10.5,6.1
				c-3.5,2.6-4.4,9.7-5.8,13.6c-4.1,11.8-8.2,23.7-12.3,35.5c-2.8,8.2-5.7,16.3-8.5,24.5c0.9-0.1,1.8-0.3,2.7-0.4
				c-8.3-14.4-16.7-28.9-25-43.3c-0.4-0.7-1.4-0.9-2.1-0.5c-16.7,9.6-33.3,19.2-50,28.9c-0.5,0.3-0.7,0.8-0.7,1.3
				c0,22.7,0,45.5,0,68.2c0,36.3,0,72.5,0,108.8c0,8.4,0,16.7,0,25.1c0,1.2,1.3,1.8,2.3,1.2c10.6-6.1,21.2-12.2,31.8-18.4
				c5.5-3.2,11-6.3,16.5-9.5c2.6-1.5,2.4-2.6,2.4-5.5c0-23,0-46,0-69c0-14.4,0-28.8,0-43.2c-0.7,0.5-1.5,0.9-2.2,1.4
				c8.3,4.8,16.7,9.6,25,14.4c0.7,0.4,1.6,0.1,2-0.6c8.3-14.4,16.7-28.9,25-43.3c-0.9-0.2-1.9-0.4-2.8-0.7c0,33.7,0,67.3,0,101
				c0,4.8,0,9.6,0,14.5c0,1.2,1.3,1.8,2.3,1.2c16.7-9.6,33.3-19.2,50-28.9c0.5-0.3,0.7-0.8,0.7-1.3c0-9.6,0-19.2,0-28.9
				C671.1,312.2,668.1,312.2,668.1,314.2z"/>
		</g>
	</g>
	<g>
		<polygon class="st4" points="669.6,140.9 619.6,169.8 569.5,140.9 619.3,111.9 		"/>
		<g>
			<path class="st3" d="M668.8,139.7c-14.5,8.4-29.1,16.8-43.6,25.2c-1.8,1-4.8,2.1-6.2,3.6c0.7-0.7,1.6,0.8,0.5-0.4
				c-0.7-0.8-2.3-1.3-3.2-1.8c-8.6-5-17.2-9.9-25.8-14.9c-6.8-3.9-13.6-7.8-20.3-11.7c0,0.9,0.1,1.7,0.1,2.6
				c14.5-8.4,29-16.8,43.5-25.2c1.8-1,4.8-2.1,6.2-3.6c-0.7,0.7-1.6-0.8-0.5,0.4c0.7,0.8,2.3,1.3,3.2,1.8c8.6,5,17.3,10,25.9,14.9
				c6.8,3.9,13.6,7.8,20.4,11.8c1.7,1,3.1-1.7,1.4-2.6c-16.7-9.7-33.5-19.3-50.2-29c-0.5-0.3-1-0.2-1.5,0
				c-16.6,9.6-33.3,19.3-49.9,28.9c-1,0.6-0.9,2,0.1,2.6c16.7,9.6,33.4,19.3,50.1,28.9c0.5,0.3,1,0.2,1.5,0
				c16.7-9.6,33.3-19.2,50-28.9C672,141.2,670.4,138.7,668.8,139.7z"/>
		</g>
	</g>
	<g>
		<polygon class="st5" points="619.6,256.4 619.6,371.9 569.6,343 569.6,285.3 594.6,299.7 		"/>
		<g>
			<path class="st3" d="M618.1,256.4c0,33.7,0,67.3,0,101c0,4.8,0,9.6,0,14.5c0.7-0.5,1.5-0.9,2.2-1.4
				c-14.5-8.4-29.1-16.8-43.6-25.2c-1.8-1-4.2-3.1-6.2-3.6c0.9,0.2,0.1,1.8,0.6,0.3c0.3-1,0-2.6,0-3.6c0-9.9,0-19.8,0-29.8
				c0-7.8,0-15.6,0-23.4c-0.7,0.5-1.5,0.9-2.2,1.4c8.3,4.8,16.7,9.6,25,14.4c0.7,0.4,1.6,0.1,2-0.6c8.3-14.4,16.7-28.9,25-43.3
				c1-1.7-1.7-3.1-2.6-1.4c-8.3,14.4-16.7,28.9-25,43.3c0.7-0.2,1.4-0.4,2-0.6c-8.3-4.8-16.7-9.6-25-14.4c-1-0.6-2.2,0.3-2.2,1.4
				c0,19.2,0,38.5,0,57.7c0,0.5,0.3,1,0.8,1.3c16.7,9.6,33.3,19.2,50,28.9c1,0.6,2.2-0.3,2.2-1.4c0-33.7,0-67.3,0-101
				c0-4.8,0-9.6,0-14.5C621.1,254.4,618.1,254.5,618.1,256.4z"/>
		</g>
	</g>
	<g>
		<polygon class="st4" points="619.6,169.8 594.6,242 569.6,198.7 552.8,189 569.5,140.9 		"/>
		<g>
			<path class="st3" d="M618.1,169.5c-8.3,24.1-16.7,48.1-25,72.2c0.9-0.1,1.8-0.3,2.7-0.4c-6.7-11.6-13.3-23.1-20-34.7
				c-1.7-3-3.3-7.3-6-9.4c-4.8-3.7-11-6.4-16.3-9.4c0.3,0.6,0.5,1.1,0.8,1.7c5.5-16,11.1-32.1,16.6-48.1c-0.7,0.3-1.4,0.7-2.2,1
				c16.7,9.6,33.4,19.3,50.1,28.9c1.7,1,3.1-1.7,1.4-2.6c-16.7-9.6-33.4-19.3-50.1-28.9c-0.9-0.5-1.9,0.1-2.2,1
				c-5.5,16-11.1,32.1-16.6,48.1c-0.2,0.6,0.2,1.4,0.8,1.7c5.3,3.1,10.8,5.9,15.9,9.2c1.4,0.9,0-0.3,0.4,0.2
				c0.4,0.5,0.7,1.2,1.1,1.8c1.5,2.5,2.9,5.1,4.4,7.6c6.5,11.2,12.9,22.4,19.4,33.6c0.7,1.2,2.3,0.7,2.7-0.4
				c8.3-24.1,16.7-48.1,25-72.2C621.7,168.3,618.7,167.6,618.1,169.5z"/>
		</g>
	</g>
	<g>
		<polygon class="st4" points="569.6,198.7 519.6,227.5 468.7,198.2 519.6,169.8 552.8,189 		"/>
		<g>
			<path class="st3" d="M568.8,197.4c-14.6,8.4-29.3,16.9-43.9,25.3c-1.8,1.1-4.5,2-6,3.5c1.3-1.2,1.8,0.7,0.4-0.6
				c-0.8-0.8-2.3-1.3-3.3-1.9c-8.7-5-17.5-10.1-26.2-15.1c-6.8-3.9-13.5-7.8-20.3-11.7c0,0.9,0.1,1.7,0.1,2.6
				c14.7-8.2,29.4-16.4,44.2-24.6c2-1.1,4.7-2.1,6.5-3.6c-0.7,0.6-1.7-0.6-0.2,0.6c1.2,1,3,1.7,4.4,2.5c8.6,5,17.2,9.9,25.8,14.9
				c6.2,3.6,12.5,7.2,18.7,10.8c1.7,1,3.1-1.7,1.4-2.6c-14.1-8.2-28.3-16.3-42.4-24.5c-2-1.2-5.3-4-7.6-4.4c-1.7-0.3-3,0.9-4.5,1.7
				c-8.6,4.8-17.3,9.6-25.9,14.4c-7.3,4.1-14.6,8.2-22,12.3c-1,0.6-0.9,2.1,0.1,2.6c15,8.6,29.9,17.3,44.9,25.9c1.6,1,4,3,5.9,3.4
				c1.6,0.3,2.8-0.8,4.1-1.5c8.5-4.9,16.9-9.8,25.4-14.7c7.3-4.2,14.7-8.5,22-12.7C572,199,570.4,196.4,568.8,197.4z"/>
		</g>
	</g>
	<g>
		<polygon class="st5" points="519.6,227.5 519.6,429.6 494.6,414.4 494.6,242 468.7,227 468.7,198.2 		"/>
		<g>
			<path class="st3" d="M518.1,227.6c0,22.7,0,45.5,0,68.2c0,36.3,0,72.5,0,108.8c0,8.4,0,16.7,0,25.1c0.7-0.5,1.5-0.9,2.2-1.4
				c-3.5-2.1-6.9-4.2-10.4-6.3c-2.6-1.6-5.3-3.2-7.9-4.8c-1.7-1.1-3.9-2.9-5.8-3.5c-1.7-0.5,0-0.2-0.1,0.6c0.1-0.5,0-1,0-1.5
				c0.2-2.1,0-4.3,0-6.5c0-19.9,0-39.8,0-59.7c0-24.3,0-48.5,0-72.8c0-8,0-16.1,0-24.1c0-2.5,0.9-7.1-0.9-9c-1-1.1-3.2-1.8-4.4-2.6
				c-2.9-1.7-5.9-3.4-8.8-5.1c-2.9-1.7-5.7-3.3-8.6-5c-0.9-0.5-1.7-1.1-2.6-1.5c-0.7-0.3-1.5-1.3-0.8-0.1c0.7,1.3,0.3-0.3,0.4-0.8
				c0.1-1,0-2.1,0-3c0-3.3,0-6.6,0-9.9c0-4.8,0-9.6,0-14.4c-0.7,0.5-1.5,0.9-2.2,1.4c17,9.8,33.9,19.6,50.9,29.4
				c1.7,1,3.1-1.7,1.4-2.6c-17-9.8-33.9-19.6-50.9-29.4c-1-0.6-2.2,0.3-2.2,1.4c0,9.1-0.9,18.8,0,27.8c0.3,2.8,2.3,3.2,4.7,4.6
				c5.1,2.9,10.2,5.9,15.3,8.8c1.7,1,3.7,2.6,5.6,3.3c1.9,0.6,0.1,0.1,0.3-0.4c-0.4,1,0,3.2,0,4.3c0,7.3,0,14.6,0,21.9
				c0,45.1,0,90.2,0,135.3c0,3.1-1.3,9.6,0.8,12.1c0.8,1,2.8,1.7,3.9,2.4c2.9,1.7,5.7,3.5,8.6,5.2c4.2,2.5,8.3,5.1,12.5,7.6
				c1,0.6,2.2-0.3,2.2-1.4c0-22.7,0-45.5,0-68.2c0-36.3,0-72.5,0-108.8c0-8.4,0-16.7,0-25.1C521.1,225.6,518.1,225.6,518.1,227.6z"
				/>
		</g>
	</g>
	<g>
		<polygon class="st2" points="494.7,97.6 494.8,155.2 445,184 444.6,126.5 		"/>
		<g>
			<path class="st3" d="M493.2,97.6c0,16.8,0.1,33.5,0.1,50.3c0,2-0.6,5.2,0,7.2c-0.3-0.9,1.5-1-0.1-0.7c-1,0.2-2.2,1.3-3.1,1.8
				c-8.6,4.9-17.1,9.9-25.7,14.8c-6.7,3.9-13.5,7.8-20.2,11.7c0.8,0.4,1.5,0.8,2.3,1.2c-0.1-16.7-0.2-33.4-0.4-50.1
				c0-2,0.6-5.2-0.1-7.2c0.3,0.9-1.5,1,0.1,0.6c1-0.2,2.3-1.3,3.2-1.8c8.6-5,17.2-9.9,25.8-14.9c6.8-3.9,13.6-7.8,20.3-11.7
				c1.7-1,0.1-3.5-1.6-2.6c-16.7,9.6-33.4,19.3-50.1,28.9c-0.5,0.3-0.7,0.8-0.7,1.3c0.1,19.2,0.3,38.3,0.4,57.5
				c0,1.2,1.3,1.8,2.3,1.2c16.6-9.6,33.2-19.2,49.8-28.8c0.5-0.3,0.7-0.8,0.7-1.3c0-19.2-0.1-38.4-0.1-57.7
				C496.2,95.6,493.2,95.7,493.2,97.6z"/>
		</g>
	</g>
	<g>
		<polygon class="st4" points="494.7,97.6 444.6,126.5 394.7,97.6 444.8,68.9 		"/>
		<g>
			<path class="st3" d="M493.9,96.3c-14.6,8.4-29.1,16.8-43.7,25.2c-1.8,1-4.8,2.1-6.3,3.6c0.7-0.7,1.6,0.8,0.5-0.4
				c-0.7-0.8-2.2-1.3-3.1-1.8c-8.6-5-17.1-9.9-25.7-14.9c-6.7-3.9-13.5-7.8-20.2-11.7c0,0.9,0.1,1.7,0.1,2.6
				c14.6-8.3,29.1-16.7,43.7-25c1.8-1,4.8-2.1,6.3-3.6c-0.7,0.7-1.6-0.8-0.5,0.4c0.7,0.8,2.2,1.3,3.1,1.8
				c8.6,4.9,17.1,9.9,25.7,14.8c6.7,3.9,13.5,7.8,20.2,11.6c1.7,1,3.1-1.7,1.4-2.6c-14.9-8.6-29.8-17.1-44.7-25.7
				c-1.5-0.8-3.6-2.7-5.2-3c-1.7-0.3-3.1,1-4.5,1.8c-8.6,4.9-17.3,9.9-25.9,14.8c-7.1,4-14.1,8.1-21.2,12.1c-1,0.6-0.9,2.1,0.1,2.6
				c16.6,9.6,33.3,19.3,49.9,28.9c0.5,0.3,1,0.2,1.5,0c16.7-9.6,33.4-19.3,50.1-28.9C497.1,97.9,495.6,95.3,493.9,96.3z"/>
		</g>
	</g>
	<g>
		<polygon class="st2" points="494.6,414.4 494.6,444 444.6,472.9 444.6,270.8 494.6,242 		"/>
		<g>
			<path class="st3" d="M493.1,414.5c0,5.9,0,11.8,0,17.7c0,3.3-0.2,6.7,0,9.9c0.1,0.8-0.4,2.5,0.3,1.3c0.8-1.3-0.1-0.2-0.6-0.1
				c-1.8,0.5-3.9,2.2-5.5,3.2c-3.1,1.8-6.2,3.6-9.3,5.4c-7.1,4.1-14.2,8.2-21.3,12.3c-4.3,2.5-8.6,5-13,7.5c0.8,0.4,1.5,0.8,2.3,1.2
				c0-33.7,0-67.4,0-101c0-23.2,0-46.3,0-69.5c0-7.6,0-15.3,0-22.9c0-2.1,0-4.3,0-6.4c0-0.3,0.2-1.4,0-1.7c-0.6-1.1,0.9,0.3-0.7,0.7
				c2.9-0.8,6-3.5,8.6-5c5.6-3.2,11.2-6.5,16.8-9.7c8.2-4.7,16.4-9.5,24.6-14.2c-0.8-0.4-1.5-0.8-2.3-1.2c0,19.4,0,38.8,0,58.2
				c0,31,0,61.9,0,92.9C493.1,400.2,493.1,407.3,493.1,414.5c0,1.9,3,1.9,3-0.1c0-19.4,0-38.8,0-58.2c0-31,0-61.9,0-92.9
				c0-7.1,0-14.3,0-21.4c0-1.2-1.3-1.8-2.3-1.2c-16.1,9.3-32.1,18.5-48.2,27.8c-3,1.7-2.5,3-2.5,6.2c0,6.2,0,12.4,0,18.6
				c0,46.5,0,93,0,139.5c0,13.4,0,26.8,0,40.2c0,1.2,1.3,1.8,2.3,1.2c11-6.4,22-12.7,33.1-19.1c5.3-3,10.8-5.8,15.9-9.2
				c3-2,1.8-6.3,1.8-9.6c0-7.3,0-14.6,0-21.9C496.1,412.5,493.1,412.5,493.1,414.5z"/>
		</g>
	</g>
	<g>
		<polygon class="st4" points="494.6,242 444.6,270.8 394.6,242 444.6,213.1 468.7,227 		"/>
		<g>
			<path class="st3" d="M493.8,240.7c-14.5,8.4-29.1,16.8-43.6,25.2c-1.8,1-4.8,2.1-6.2,3.6c0.7-0.7,1.6,0.8,0.5-0.4
				c-0.7-0.8-2.3-1.3-3.1-1.8c-8.6-5-17.2-9.9-25.8-14.9c-6.8-3.9-13.5-7.8-20.3-11.7c0,0.9,0.1,1.7,0.1,2.6
				c14.5-8.4,29.1-16.8,43.6-25.2c2.1-1.2,4.2-2.3,6.2-3.6c0.2-0.2-1.4-0.4-1.1,0.1c0.2,0.3,1,0.5,1.3,0.8c1.7,1.2,3.7,2.1,5.5,3.2
				c6.3,3.6,12.5,7.2,18.8,10.8c8.1,4.7,16.1,9.3,24.2,14c1.7,1,3.1-1.7,1.4-2.6c-13.6-7.9-27.3-15.8-40.9-23.6
				c-2.5-1.5-6.2-4.7-9.1-5.2c-1.7-0.3-3.1,1-4.5,1.8c-8.6,5-17.2,10-25.8,14.9c-7,4.1-14.1,8.1-21.1,12.2c-1,0.6-0.9,2.1,0.1,2.6
				c16.7,9.6,33.3,19.2,50,28.9c0.5,0.3,1,0.2,1.5,0c16.7-9.6,33.3-19.2,50-28.9C497,242.3,495.4,239.7,493.8,240.7z"/>
		</g>
	</g>
	<g>
		<polygon class="st5" points="444.6,126.5 445,184 394.5,155.3 394.7,97.6 		"/>
		<g>
			<path class="st3" d="M443.1,126.5c0.1,19.2,0.3,38.3,0.4,57.5c0.7-0.5,1.5-0.9,2.2-1.4c-14.6-8.3-29.2-16.6-43.8-24.9
				c-1.9-1.1-4.3-3.2-6.5-3.7c0.9,0.2,0,1.7,0.6,0.4c0.4-0.9,0-2.8,0-3.8c0-9.8,0.1-19.5,0.1-29.3c0-8,0-15.9,0.1-23.9
				c-0.7,0.5-1.5,0.9-2.2,1.4c16.6,9.6,33.3,19.3,49.9,28.9c1.7,1,3.1-1.7,1.4-2.6c-16.6-9.6-33.3-19.3-49.9-28.9
				c-1-0.6-2.2,0.3-2.2,1.4c-0.1,19.3-0.1,38.5-0.2,57.8c0,0.5,0.3,1,0.8,1.3c16.8,9.6,33.7,19.1,50.5,28.7c1,0.6,2.2-0.3,2.2-1.4
				c-0.1-19.2-0.3-38.3-0.4-57.5C446,124.5,443,124.6,443.1,126.5z"/>
		</g>
	</g>
	<g>
		<polygon class="st5" points="444.6,270.8 444.6,472.9 394.6,444 394.6,415.2 394.6,357.4 394.6,328.6 394.6,242 		"/>
		<g>
			<path class="st3" d="M443.1,270.9c0,22.7,0,45.4,0,68.2c0,36.3,0,72.5,0,108.8c0,8.4,0,16.7,0,25.1c0.7-0.5,1.5-0.9,2.2-1.4
				c-16-9.2-32-18.5-48-27.7c-0.6-0.4-1.3-0.9-2-1.2c1.2,0.5,0.1,1.6,0.8,0.6c0.3-0.4,0-2.3,0-2.8c0-5.7,0-11.5,0-17.2
				c0-6.1,0-12.1,0-18.2c0-33.2,0-66.5,0-99.7c0-21.2,0-42.4,0-63.6c-0.7,0.5-1.5,0.9-2.2,1.4c16.7,9.6,33.3,19.2,50,28.9
				c1.7,1,3.1-1.7,1.4-2.6c-16.7-9.6-33.3-19.2-50-28.9c-1-0.6-2.2,0.3-2.2,1.4c0,34.7,0,69.3,0,104c0,18.1,0,36.2,0,54.3
				c0,6.1,0,12.3,0,18.4c0,5.9,0,11.8,0,17.6c0,2.5-1,7.1,0.8,9.1c1.8,1.9,5.7,3.3,8,4.6c5.5,3.2,11.1,6.4,16.6,9.6
				c8.5,4.9,17,9.8,25.4,14.7c1,0.6,2.2-0.3,2.2-1.4c0-22.7,0-45.4,0-68.2c0-36.3,0-72.5,0-108.8c0-8.4,0-16.7,0-25.1
				C446.1,268.9,443.1,268.9,443.1,270.9z"/>
		</g>
	</g>
	<g>
		<polygon class="st2" points="394.6,357.4 394.6,415.2 369.6,429.6 369.6,371.9 		"/>
		<g>
			<path class="st3" d="M393.1,357.5c0,11.9,0,23.8,0,35.8c0,6.5,0,12.9,0,19.4c0,0.5-0.2,1.6,0,2c0.5,1,0.2-0.6,0.5-0.6
				c-1.9,0.2-4.9,2.8-6.5,3.8c-6.1,3.5-12.2,7-18.3,10.5c0.8,0.4,1.5,0.8,2.3,1.2c0-11.9,0-23.9,0-35.8c0-6.5,0-13,0-19.4
				c0-0.5,0.2-1.6,0-2c-0.5-1-0.2,0.6-0.5,0.6c1.9-0.2,4.9-2.8,6.5-3.7c6.1-3.5,12.2-7,18.3-10.5c1.7-1,0.1-3.5-1.6-2.6
				c-8.3,4.8-16.7,9.6-25,14.4c-0.5,0.3-0.7,0.8-0.7,1.3c0,19.2,0,38.5,0,57.7c0,1.2,1.3,1.8,2.3,1.2c5.4-3.1,10.9-6.3,16.3-9.4
				c2.7-1.6,8.8-3.5,9.4-6.8c1-5,0-11.2,0-16.3c0-8.4,0-16.7,0-25.1c0-5.3,0-10.6,0-15.9C396.1,355.5,393.1,355.5,393.1,357.5z"/>
		</g>
	</g>
	<g>
		<polygon class="st6" points="394.6,328.6 394.6,357.4 369.6,371.9 344.6,357.4 		"/>
		<g>
			<path class="st3" d="M393.1,328.6c0,5.9,0,11.9,0,17.8c0,3.1-0.4,6.5,0,9.6c0.3,2.1-0.6,0.6,0.7,0.2c-0.7,0.2-1.3,0.7-1.9,1.1
				c-6.4,3.7-12.8,7.4-19.2,11.1c-0.9,0.5-2.3,1-3,1.7c-1.2,1.2-0.1-0.1,0.4,0.3c-1.7-1.6-4.5-2.6-6.5-3.7
				c-6.1-3.5-12.2-7-18.3-10.5c0,0.9,0.1,1.7,0.1,2.6c16.7-9.6,33.3-19.2,50-28.9c1.7-1,0.1-3.5-1.6-2.6
				c-16.7,9.6-33.3,19.2-50,28.9c-1,0.6-0.9,2.1,0.1,2.6c4.5,2.6,8.9,5.1,13.4,7.7c2.9,1.7,5.8,3.3,8.6,5c1,0.6,2.5,1.9,3.7,1.9
				c1.1,0,2.6-1.3,3.5-1.8c3-1.7,6-3.4,8.9-5.2c4.5-2.6,8.9-5.1,13.4-7.7c0.5-0.3,0.7-0.8,0.7-1.3c0-9.6,0-19.2,0-28.9
				C396.1,326.6,393.1,326.7,393.1,328.6z"/>
		</g>
	</g>
	<g>
		<polygon class="st2" points="394.6,242 394.6,328.6 344.6,357.4 344.6,213.1 394.6,184.2 		"/>
		<g>
			<path class="st3" d="M393.1,242c0,20.6,0,41.2,0,61.7c0,5.5,0,11,0,16.5c0,2.1-0.8,6.1,0,8.1c-0.4-0.9,1.6-1.1-0.3-0.5
				c-1.6,0.6-3.3,1.9-4.8,2.8c-5.2,3-10.5,6.1-15.7,9.1c-9.5,5.5-19,10.9-28.4,16.4c0.8,0.4,1.5,0.8,2.3,1.2c0-27.2,0-54.4,0-81.6
				c0-16.6,0-33.2,0-49.8c0-3.5,1-8.7,0-12c-0.1-0.2,0.1-0.6,0-0.8c0.5,2.2-1.4,1-0.1,0.9c1.8-0.1,4.9-2.9,6.4-3.7
				c14.3-8.3,28.7-16.5,43-24.8c-0.8-0.4-1.5-0.8-2.3-1.2C393.1,203.5,393.1,222.8,393.1,242c0,1.9,3,1.9,3-0.1
				c0-19.2,0-38.5,0-57.7c0-1.2-1.3-1.8-2.3-1.2c-12.8,7.4-25.7,14.8-38.5,22.3c-3,1.7-5.9,3.4-8.9,5.1c-1.1,0.6-2.7,1.2-3.3,2.4
				c-0.8,1.8,0,5.5,0,7.4c0,34.6,0,69.1,0,103.7c0,11.2,0,22.4,0,33.6c0,1.2,1.3,1.8,2.3,1.2c8.2-4.7,16.4-9.5,24.6-14.2
				c5.8-3.4,11.6-6.7,17.5-10.1c2.2-1.3,6.2-2.6,8-4.6c1.2-1.4,0.7-3.6,0.7-5.4c0-4.6,0-9.2,0-13.8c0-13.7,0-27.4,0-41.1
				c0-9.2,0-18.4,0-27.6C396.1,240,393.1,240.1,393.1,242z"/>
		</g>
	</g>
	<g>
		<polygon class="st4" points="394.6,184.2 344.6,213.1 294.6,184.2 319.6,169.8 344.6,155.4 		"/>
		<g>
			<path class="st3" d="M393.8,183c-14.5,8.4-29.1,16.8-43.6,25.2c-1.8,1-4.8,2.1-6.2,3.6c0.7-0.7,1.6,0.8,0.5-0.4
				c-0.7-0.8-2.3-1.3-3.1-1.8c-8.6-5-17.2-9.9-25.8-14.9c-6.8-3.9-13.5-7.8-20.3-11.7c0,0.9,0.1,1.7,0.1,2.6
				c13.1-7.5,26.1-15.1,39.2-22.6c3-1.8,8-3.5,10.5-6c-0.2,0.2-1.3-0.8-0.5,0.2c0.6,0.8,2.4,1.4,3.3,1.9c8.4,4.9,16.9,9.8,25.3,14.6
				c6.9,4,13.8,8,20.7,12c1.7,1,3.1-1.7,1.4-2.6c-15-8.7-30-17.3-45-26c-1.4-0.8-3.4-2.6-5-2.9c-2.4-0.5-5.5,2.4-7.5,3.5
				c-6.6,3.8-13.2,7.6-19.8,11.4c-8.1,4.7-16.2,9.3-24.3,14c-1,0.6-0.9,2.1,0.1,2.6c16.7,9.6,33.3,19.2,50,28.9c0.5,0.3,1,0.2,1.5,0
				c16.7-9.6,33.3-19.2,50-28.9C397,184.5,395.4,182,393.8,183z"/>
		</g>
	</g>
	<g>
		<polygon class="st5" points="369.6,371.9 369.6,429.6 294.6,386.3 294.6,328.6 294.6,270.8 294.6,242 294.6,184.2 294.6,184.2 
			344.6,213.1 344.6,357.4 		"/>
		<g>
			<path class="st3" d="M368.1,371.9c0,19.2,0,38.5,0,57.7c0.7-0.5,1.5-0.9,2.2-1.4c-18.1-10.4-36.2-20.9-54.3-31.3
				c-4.7-2.7-9.3-5.4-14-8.1c-2-1.2-4.4-3.2-6.6-3.8c1.4,0.4,0.4,1.9,0.7-0.5c0.2-1.9,0-4.1,0-6c0-6.2,0-12.4,0-18.6
				c0-38.6,0-77.1,0-115.7c0-20,0-40,0-60c-0.7,0.5-1.5,0.9-2.2,1.4c12.6,7.3,25.2,14.5,37.8,21.8c3.1,1.8,6.1,3.5,9.2,5.3
				c0.6,0.4,1.6,1.2,2.3,1.3c1.5,0.2-0.5,0.5-0.1-0.8c-0.7,2.4,0,6,0,8.4c0,34.5,0,69,0,103.5c0,10.8,0,21.6,0,32.4
				c0,0.5,0.3,1,0.8,1.3c8.3,4.8,16.7,9.6,25,14.4c1.7,1,3.1-1.7,1.4-2.6c-7.3-4.2-14.7-8.5-22-12.7c-0.9-0.5-1.9-1.3-2.9-1.7
				c2.3,0.8,0.1,1.7,0.7,0.6c0.5-1.1,0-3.7,0-4.9c0-17.4,0-34.9,0-52.3c0-21.3,0-42.5,0-63.8c0-6.4,0-12.9,0-19.3
				c0-3.1,0.2-4.2-2.6-5.8c-16.1-9.3-32.1-18.5-48.2-27.8c-1-0.6-2.2,0.3-2.2,1.4c0,27,0,54,0,80.9c0,23.6,0,47.2,0,70.8
				c0,16.8,0,33.6,0,50.3c0,0.5,0.3,1,0.8,1.3c21.8,12.6,43.6,25.2,65.5,37.8c3.2,1.8,6.4,3.7,9.5,5.5c1,0.6,2.2-0.3,2.2-1.4
				c0-19.2,0-38.5,0-57.7C371.1,369.9,368.1,370,368.1,371.9z"/>
		</g>
	</g>
	<g>
		<polygon class="st6" points="294.6,126.5 319.6,169.8 294.6,184.2 294.6,184.2 269.6,198.7 244.3,155.2 		"/>
		<g>
			<path class="st3" d="M293.3,127.3c8.3,14.4,16.7,28.9,25,43.3c0.2-0.7,0.3-1.4,0.5-2.1c-8.3,4.8-16.7,9.6-25,14.4
				c-0.5,0.3-0.7,0.8-0.7,1.3c0-1.9,1.2-1.2-0.4-0.7c-1,0.3-2,1.1-2.8,1.6c-2.9,1.7-5.7,3.3-8.6,5c-4.2,2.4-8.3,4.8-12.5,7.2
				c0.7,0.2,1.4,0.3,2.1,0.5c-8.4-14.5-16.8-29-25.2-43.4c-0.2,0.7-0.3,1.4-0.5,2.1c16.7-9.6,33.5-19.2,50.2-28.7
				c1.7-1,0.1-3.5-1.6-2.6c-16.7,9.6-33.5,19.2-50.2,28.7c-0.7,0.4-0.9,1.4-0.5,2.1c8.4,14.5,16.8,29,25.2,43.4
				c0.4,0.7,1.4,0.9,2.1,0.5c8.3-4.8,16.7-9.6,25-14.4c0.5-0.3,0.7-0.8,0.7-1.3c0,1.9-1.2,1.2,0.4,0.7c1-0.3,2-1.1,2.8-1.6
				c2.9-1.7,5.7-3.3,8.6-5c4.2-2.4,8.3-4.8,12.5-7.2c0.7-0.4,0.9-1.4,0.5-2.1c-8.3-14.4-16.7-28.9-25-43.3
				C294.9,124,292.3,125.6,293.3,127.3z"/>
		</g>
	</g>
	<g>
		<polygon class="st2" points="294.6,270.8 294.6,328.6 269.6,343 268.7,284.8 		"/>
		<g>
			<path class="st3" d="M293.1,270.9c0,11.9,0,23.8,0,35.8c0,6.5,0,12.9,0,19.4c0,0.5-0.2,1.6,0,2c0.5,1,0.2-0.6,0.5-0.6
				c-1.9,0.2-4.9,2.8-6.5,3.8c-6.1,3.5-12.2,7-18.3,10.5c0.8,0.4,1.5,0.8,2.3,1.2c-0.2-12.2-0.4-24.3-0.5-36.5
				c-0.1-6.4-0.2-12.8-0.3-19.2c0-0.4,0.2-1.6,0-2c-0.5-0.9-0.6,0.6-0.4,0.6c2.1-0.3,4.9-2.7,6.8-3.6c6.3-3.4,12.5-6.7,18.8-10.1
				c1.7-0.9,0.1-3.5-1.6-2.6c-8.6,4.6-17.2,9.3-25.9,13.9c-0.5,0.2-0.7,0.8-0.7,1.3c0.3,19.4,0.6,38.8,0.9,58.2
				c0,1.2,1.3,1.8,2.3,1.2c5.4-3.1,10.9-6.3,16.3-9.4c2.7-1.6,8.8-3.5,9.4-6.8c1-5,0-11.2,0-16.3c0-8.4,0-16.7,0-25.1
				c0-5.3,0-10.6,0-15.9C296.1,268.9,293.1,268.9,293.1,270.9z"/>
		</g>
	</g>
	<g>
		<polygon class="st6" points="294.6,242 294.6,270.8 268.7,284.8 257.1,263.6 269.6,256.4 		"/>
		<g>
			<path class="st3" d="M293.1,242c0,4.8,0,9.6,0,14.4c0,3.3,0,6.6,0,9.9c0,1-0.2,2.3,0,3.3c0.5,1.9-1,0.5,0.7,0
				c-4.5,1.4-9.2,4.9-13.3,7.2c-4.2,2.2-8.3,4.5-12.5,6.7c0.7,0.2,1.4,0.3,2.1,0.5c-3.9-7-7.8-14.1-11.6-21.1
				c-0.2,0.7-0.3,1.4-0.5,2.1c12.5-7.2,25-14.4,37.5-21.6c1.7-1,0.1-3.5-1.6-2.6c-12.5,7.2-25,14.4-37.5,21.6
				c-0.7,0.4-0.9,1.4-0.5,2.1c3.9,7.1,7.8,14.1,11.6,21.1c0.4,0.7,1.4,0.9,2.1,0.5c8.6-4.6,17.2-9.3,25.9-13.9
				c0.5-0.3,0.7-0.8,0.7-1.3c0-9.6,0-19.2,0-28.9C296.1,240,293.1,240.1,293.1,242z"/>
		</g>
	</g>
	<g>
		<polygon class="st2" points="294.6,184.2 294.6,242 269.6,256.4 269.6,198.7 		"/>
		<g>
			<path class="st3" d="M293.1,184.3c0,11.9,0,23.8,0,35.8c0,6.5,0,12.9,0,19.4c0,0.5-0.2,1.6,0,2c0.5,1,0.2-0.6,0.5-0.6
				c-1.9,0.2-4.9,2.8-6.5,3.7c-6.1,3.5-12.2,7-18.3,10.5c0.8,0.4,1.5,0.8,2.3,1.2c0-11.9,0-23.8,0-35.8c0-6.5,0-12.9,0-19.4
				c0-0.5,0.2-1.6,0-2c-0.5-1-0.2,0.6-0.5,0.6c1.9-0.2,4.9-2.8,6.5-3.7c6.1-3.5,12.2-7,18.3-10.5c1.7-1,0.1-3.5-1.6-2.6
				c-8.3,4.8-16.7,9.6-25,14.4c-0.5,0.3-0.7,0.8-0.7,1.3c0,19.2,0,38.5,0,57.7c0,1.2,1.3,1.8,2.3,1.2c8.3-4.8,16.7-9.6,25-14.4
				c0.5-0.3,0.7-0.8,0.7-1.3c0-19.2,0-38.5,0-57.7C296.1,182.3,293.1,182.3,293.1,184.3z"/>
		</g>
	</g>
	<g>
		<polygon class="st4" points="294.6,126.5 244.3,155.2 169.8,111.9 219.6,83.2 		"/>
		<g>
			<path class="st3" d="M293.8,125.2c-7.9,4.5-15.9,9.1-23.8,13.6c-5.7,3.3-11.4,6.5-17.1,9.8c-2.9,1.6-6.7,3.1-9.2,5.3
				c1.1-0.9,1.7,0.8,0.4-0.5c-0.8-0.8-2.4-1.4-3.4-2c-4.2-2.4-8.3-4.8-12.5-7.3c-11.7-6.8-23.4-13.6-35.1-20.4
				c-7.5-4.4-15.1-8.7-22.6-13.1c0,0.9,0.1,1.7,0.1,2.6c7.9-4.5,15.7-9.1,23.6-13.6c5.6-3.3,11.3-6.5,16.9-9.8
				c2.8-1.6,6.6-3.1,9.1-5.3c-1.1,0.9-1.7-0.8-0.4,0.5c0.8,0.8,2.4,1.4,3.4,2c4.2,2.4,8.4,4.8,12.6,7.3
				c11.8,6.8,23.6,13.6,35.3,20.4c7.6,4.4,15.1,8.7,22.7,13.1c1.7,1,3.1-1.7,1.4-2.6c-18.3-10.6-36.7-21.2-55-31.8
				c-4.7-2.7-9.5-5.5-14.2-8.2c-1.6-0.9-3.9-2.9-5.7-3.3c-2.1-0.4-4.7,1.9-6.5,2.9c-5.1,2.9-10.2,5.9-15.2,8.8
				c-9.9,5.7-19.7,11.4-29.6,17.1c-1,0.6-0.9,2,0.1,2.6c18.2,10.6,36.5,21.2,54.7,31.8c4.7,2.7,9.4,5.5,14.2,8.2
				c1.6,0.9,3.8,2.9,5.7,3.3c2.1,0.4,4.7-1.9,6.5-2.9c5.1-2.9,10.2-5.9,15.4-8.8c9.9-5.7,19.9-11.4,29.8-17.1
				C297,126.8,295.4,124.3,293.8,125.2z"/>
		</g>
	</g>
	<g>
		<path class="st5" d="M269.6,198.7v57.7l-12.5,7.2l11.6,21.1l0.9,58.2h-50L170,313.9l-0.4-173l0.2-29l74.6,43.3L269.6,198.7z
			 M231.8,306.5v-29.3L207.3,263v28.3L231.8,306.5z M231.8,220.4v-29.3l-24.5-14.2v28.3L231.8,220.4z"/>
		<g>
			<path class="st3" d="M268.1,198.7c0,13,0,26.1,0,39.1c0,3.6,0,7.2,0,10.9c0,1.8-0.7,5.2,0,7c0.5,1.3-0.6,0,0.6-0.5
				c-1.3,0.5-2.5,1.4-3.7,2.1c-2.9,1.7-5.8,3.4-8.7,5.1c-0.7,0.4-0.9,1.4-0.5,2.1c3.6,6.5,6.9,13.3,10.8,19.7
				c0.6,0.9,0.7,1.8,0.6,0.9c0.1,0.7,0,1.6,0,2.3c0,3.2,0.1,6.5,0.1,9.7c0.2,15.3,0.5,30.7,0.7,46c0.5-0.5,1-1,1.5-1.5
				c-11.1,0-22.2,0-33.4,0c-5.1,0-10.3-0.1-15.4,0c-1.9,0.1,0,0.3-1-0.1c-1.5-0.7-3-1.8-4.5-2.6c-11.6-6.8-23.1-13.6-34.7-20.4
				c-2.9-1.7-6.6-5-9.8-5.8c1.4,0.3,0.1,1.8,0.7,0.6c0.3-0.6,0-1.9,0-2.5c-0.1-49.3-0.2-98.5-0.4-147.8c0-17,0-34,0.2-51
				c-0.7,0.5-1.5,0.9-2.2,1.4c16.7,9.7,33.3,19.3,50,29c7.7,4.5,15.4,9.5,23.3,13.6c0.3,0.2,1.6,1.1,1,0.5c-0.5-0.5,0.9,1.7,1.1,2.2
				c2.6,4.4,5.2,8.9,7.7,13.3c5.4,9.2,10.7,18.4,16.1,27.6c1,1.7,3.5,0.1,2.6-1.6c-4.7-8.1-9.4-16.2-14.1-24.3
				c-2.9-4.9-5.7-9.8-8.6-14.7c-1-1.7-1.8-3.7-3.2-5c-1.7-1.5-4.3-2.5-6.3-3.7c-4.5-2.6-8.9-5.2-13.4-7.8
				c-11.1-6.4-22.2-12.9-33.3-19.3c-7.1-4.1-14.3-8.3-21.4-12.4c-1-0.6-2.2,0.3-2.2,1.4c-0.3,41.8-0.1,83.6,0,125.4
				c0.1,23.6,0.1,47.3,0.2,70.9c0,1.5-0.4,3.9,0,5.4c0.6,1.9,2.6,2.5,4.2,3.5c11.6,6.8,23.2,13.6,34.8,20.4c3.4,2,7.5,5.4,11.3,6.7
				c3.4,1.1,8.4,0.2,12,0.2c12.9,0,25.9,0,38.8,0c0.8,0,1.5-0.7,1.5-1.5c-0.2-15.7-0.5-31.5-0.7-47.2c-0.1-4,0.8-9.1-1-12.8
				c-3.3-6.8-7.4-13.4-11.1-20.1c-0.2,0.7-0.3,1.4-0.5,2.1c2.9-1.7,5.8-3.4,8.7-5.1c1.7-1,3.9-1.6,4.5-3.6c0.4-1.4,0-3.6,0-5
				c0-3.7,0-7.4,0-11.2c0-13.8,0-27.6,0-41.4C271.1,196.7,268.1,196.8,268.1,198.7z"/>
			<path class="st3" d="M233.3,306.5c0-9.8,0-19.5,0-29.3c0-0.5-0.3-1-0.8-1.3c-8.2-4.7-16.3-9.4-24.5-14.1c-1-0.6-2.2,0.3-2.2,1.4
				c0,5.2,0,10.4,0,15.6c0,3.2,0,6.3,0,9.5c0,1.2-0.4,3,0.3,4.1c0.6,0.9,2.5,1.6,3.4,2.2c2.8,1.7,5.7,3.5,8.5,5.2
				c4.4,2.7,8.7,5.4,13.1,8.1c1.6,1,3.1-1.6,1.4-2.6c-8.1-5-16.1-10.7-24.5-15.1c1.3,0.7,0.3,1.7,0.8,0.2c0.2-0.9,0-2.3,0-3.2
				c0-3.1,0-6.3,0-9.4c0-4.9,0-9.8,0-14.6c-0.7,0.5-1.5,0.9-2.2,1.4c4.1,2.4,8.2,4.7,12.3,7.1c2.8,1.6,5.5,3.2,8.3,4.8
				c0.9,0.5,1.9,1.3,2.9,1.7c1.8,0.6,0,1,0.3-0.6c-0.8,4.6,0,10,0,14.6c0,4.9,0,9.8,0,14.6C230.3,308.5,233.3,308.4,233.3,306.5z"/>
			<path class="st3" d="M233.3,220.4c0-9.8,0-19.5,0-29.3c0-0.5-0.3-1-0.8-1.3c-8.2-4.7-16.3-9.4-24.5-14.2c-1-0.6-2.2,0.3-2.2,1.4
				c0,5.2,0,10.4,0,15.6c0,3.2,0,6.3,0,9.5c0,1.2-0.4,3,0.3,4.1c0.6,0.9,2.5,1.6,3.4,2.2c2.8,1.7,5.7,3.5,8.5,5.2
				c4.4,2.7,8.7,5.4,13.1,8.1c1.6,1,3.1-1.6,1.4-2.6c-8.1-5-16.1-10.7-24.5-15.1c1.3,0.7,0.3,1.7,0.8,0.2c0.2-0.9,0-2.3,0-3.2
				c0-3.1,0-6.3,0-9.4c0-4.9,0-9.8,0-14.6c-0.7,0.5-1.5,0.9-2.2,1.4c4.1,2.4,8.2,4.7,12.3,7.1c2.8,1.6,5.5,3.2,8.3,4.8
				c0.9,0.5,1.9,1.3,2.9,1.7c1.8,0.6,0,1,0.3-0.6c-0.8,4.6,0,10,0,14.6c0,4.9,0,9.8,0,14.6C230.3,222.4,233.3,222.3,233.3,220.4z"/>
		</g>
	</g>
	<g>
		<polygon class="st6" points="231.8,277.2 231.8,306.5 207.3,291.4 		"/>
		<g>
			<path class="st3" d="M230.3,277.2c0,9.8,0,19.5,0,29.3c0.7-0.5,1.5-0.9,2.2-1.4c-8.2-5-16.3-10.1-24.5-15.1
				c0,0.9,0.1,1.7,0.1,2.6c8.2-4.7,16.3-9.4,24.5-14.2c1.7-1,0.1-3.5-1.6-2.6c-8.2,4.7-16.3,9.4-24.5,14.1c-1,0.6-0.8,2,0.1,2.6
				c8.2,5,16.3,10.1,24.5,15.1c1,0.6,2.2-0.3,2.2-1.4c0-9.8,0-19.5,0-29.3C233.3,275.2,230.3,275.3,230.3,277.2z"/>
		</g>
	</g>
	<g>
		<polygon class="st6" points="231.8,191.1 231.8,220.4 207.3,205.3 		"/>
		<g>
			<path class="st3" d="M230.3,191.1c0,9.8,0,19.5,0,29.3c0.7-0.5,1.5-0.9,2.2-1.4c-8.2-5-16.3-10.1-24.5-15.1
				c0,0.9,0.1,1.7,0.1,2.6c8.2-4.7,16.3-9.4,24.5-14.2c1.7-1,0.1-3.5-1.6-2.6c-8.2,4.7-16.3,9.4-24.5,14.1c-1,0.6-0.8,2,0.1,2.6
				c8.2,5,16.3,10.1,24.5,15.1c1,0.6,2.2-0.3,2.2-1.4c0-9.8,0-19.5,0-29.3C233.3,189.1,230.3,189.2,230.3,191.1z"/>
		</g>
	</g>
	<g>
		<polygon class="st2" points="231.8,191.1 207.3,205.3 207.3,176.9 		"/>
		<g>
			<path class="st3" d="M231,189.8c-8.2,4.7-16.3,9.4-24.5,14.1c0.8,0.4,1.5,0.8,2.3,1.2c0-9.4,0-18.9,0-28.3
				c-0.7,0.5-1.5,0.9-2.2,1.4c8.2,4.7,16.3,9.4,24.5,14.1c1.7,1,3.1-1.7,1.4-2.6c-8.2-4.7-16.3-9.4-24.5-14.2
				c-1-0.6-2.2,0.3-2.2,1.4c0,9.4,0,18.9,0,28.3c0,1.2,1.3,1.8,2.3,1.2c8.2-4.7,16.3-9.4,24.5-14.2
				C234.3,191.4,232.7,188.9,231,189.8z"/>
		</g>
	</g>
	<g>
		<polygon class="st2" points="231.8,277.2 207.3,291.4 207.3,263 		"/>
		<g>
			<path class="st3" d="M231,275.9c-8.2,4.7-16.3,9.4-24.5,14.1c0.8,0.4,1.5,0.8,2.3,1.2c0-9.4,0-18.9,0-28.3
				c-0.7,0.5-1.5,0.9-2.2,1.4c8.2,4.7,16.3,9.4,24.5,14.1c1.7,1,3.1-1.7,1.4-2.6c-8.2-4.7-16.3-9.4-24.5-14.1
				c-1-0.6-2.2,0.3-2.2,1.4c0,9.4,0,18.9,0,28.3c0,1.2,1.3,1.8,2.3,1.2c8.2-4.7,16.3-9.4,24.5-14.2C234.3,277.5,232.7,275,231,275.9
				z"/>
		</g>
	</g>
	<g>
		<g>
			<path class="st3" d="M293.5,184.2c0,27.1,0,54.2,0,81.3c0,23.6,0,47.2,0,70.8c0,16.7,0,33.3,0,50c0,0.5,0.3,1,0.8,1.3
				c21.8,12.6,43.6,25.2,65.5,37.8c3.2,1.8,6.4,3.7,9.5,5.5c1,0.6,2.2-0.3,2.2-1.4c0-19.2,0-38.5,0-57.7c0-0.5-0.3-1-0.8-1.3
				c-7.3-4.2-14.7-8.5-22-12.7c-0.9-0.5-1.9-1.3-2.9-1.7c2.3,0.8,0.1,1.7,0.7,0.6c0.5-1.1,0-3.7,0-4.9c0-17.4,0-34.9,0-52.3
				c0-21.3,0-42.5,0-63.8c0-6.4,0-12.9,0-19.3c0-3.1,0.2-4.2-2.6-5.8c-16.1-9.3-32.1-18.5-48.2-27.8c-1.7-1-3.1,1.7-1.4,2.6
				c12.6,7.3,25.2,14.5,37.8,21.8c3.1,1.8,6.1,3.5,9.2,5.3c0.6,0.4,1.6,1.2,2.3,1.3c1.5,0.2-0.5,0.5-0.1-0.8c-0.7,2.4,0,6,0,8.4
				c0,34.5,0,69,0,103.5c0,10.8,0,21.6,0,32.4c0,0.5,0.3,1,0.8,1.3c5.2,3,10.3,5.9,15.5,8.9c2.7,1.5,5.4,3.6,8.3,4.8
				c2,0.8,0.2,0.8,0.5-0.5c-0.1,0.4,0.1,0.8,0,1.2c-1,5.4,0,11.9,0,17.4c0,8.1,0,16.1,0,24.2c0,5,0,10,0,15c0.7-0.5,1.5-0.9,2.2-1.4
				c-18.1-10.4-36.2-20.9-54.3-31.3c-4.7-2.7-9.3-5.4-14-8.1c-2-1.2-4.4-3.1-6.6-3.8c1.4,0.4,0.3,1.9,0.7-0.2c0.3-1.8,0-3.9,0-5.7
				c0-6.3,0-12.6,0-18.8c0-38.6,0-77.3,0-115.9c0-20.1,0-40.2,0-60.2C296.5,182.2,293.5,182.3,293.5,184.2L293.5,184.2z"/>
		</g>
	</g>
	<g>
		<g>
			<path class="st3" d="M494.2,240.6c-16.1,9.3-32.1,18.5-48.2,27.8c-3,1.7-2.5,3-2.5,6.2c0,6.2,0,12.4,0,18.6c0,46.5,0,93,0,139.5
				c0,13.4,0,26.8,0,40.2c0,1.2,1.3,1.8,2.3,1.2c16.1-9.3,32.1-18.5,48.2-27.8c1.9-1.1,2.3-1.4,2.5-3.6c0.5-5.2,0-10.8,0-16
				c0-4.9,0-9.8,0-14.7c0-41.6,0-83.2,0-124.8c0-15.1,0-30.2,0-45.3c0-1.9-3-1.9-3,0.1c0,36.2,0,72.3,0,108.5c0,19.1,0,38.1,0,57.2
				c0,2.9,0,5.8,0,8.7c0,5.4,0,10.9,0,16.3c0,2.7,0,5.3,0,8c0,0.7-0.2,1.7,0,2.4c0.4,1.6-0.5,0.1,0.7-0.3c-3,1.1-5.9,3.4-8.6,5
				c-5.6,3.2-11.2,6.5-16.8,9.7c-8.2,4.7-16.4,9.5-24.6,14.2c0.8,0.4,1.5,0.8,2.3,1.2c0-33.7,0-67.4,0-101c0-23.2,0-46.3,0-69.5
				c0-7.6,0-15.3,0-22.9c0-2.1,0-4.3,0-6.4c0-0.3,0.2-1.4,0-1.7c-0.6-1.1,0.9,0.3-0.7,0.7c2.9-0.8,6-3.5,8.6-5
				c5.6-3.2,11.2-6.5,16.8-9.7c8.2-4.7,16.4-9.5,24.6-14.2C497.4,242.2,495.9,239.7,494.2,240.6z"/>
		</g>
	</g>
	<g>
		<g>
			<path class="st3" d="M668.5,140.9c0,38,0,76.1,0,114.1c0,11.8,0,23.7,0,35.5c0,8.4,0,16.7,0,25.1c0,5.3,0,10.6,0,15.9
				c0,2.6,0,5.1,0,7.7c0,0.8-0.2,2,0,2.8c0.4,1.7-1,0.4,0.7-0.3c-2.9,1.1-5.7,3.3-8.3,4.8c-5.7,3.3-11.4,6.6-17.1,9.9
				c-8.2,4.7-16.4,9.5-24.6,14.2c0.8,0.4,1.5,0.8,2.3,1.2c0-33.7,0-67.3,0-101c0-4.8,0-9.6,0-14.5c0-1.5-2.1-1.9-2.8-0.7
				c-8.3,14.4-16.7,28.9-25,43.3c0.7-0.2,1.4-0.4,2-0.6c-8.3-4.8-16.7-9.6-25-14.4c-1-0.6-2.2,0.3-2.2,1.4c0,20.7,0,41.3,0,62
				c0,14.7,0,29.5,0,44.2c0,2.4-0.2,4.9,0,7.3c0,0.5-0.1,1.2,0,1.7c0-0.2,1.2-0.9,0.3-0.9c-1.2,0-3.6,2.1-4.6,2.6
				c-2.8,1.6-5.6,3.2-8.4,4.8c-12.2,7.1-24.4,14.1-36.7,21.2c0.8,0.4,1.5,0.8,2.3,1.2c0-33.7,0-67.4,0-101c0-23.2,0-46.3,0-69.5
				c0-7.6,0-15.3,0-22.9c0-2.1,0-4.3,0-6.4c0-0.3,0.2-1.4,0-1.7c-0.6-1.1,0.9,0.3-0.7,0.7c2.9-0.8,6-3.5,8.6-5
				c5.6-3.2,11.2-6.5,16.8-9.7c8.2-4.7,16.4-9.5,24.6-14.2c-0.7-0.2-1.4-0.3-2.1-0.5c8.3,14.4,16.7,28.9,25,43.3
				c0.7,1.2,2.3,0.7,2.7-0.4c8.3-24.1,16.7-48.1,25-72.2c0.6-1.8-2.3-2.5-2.9-0.7c-8.3,24.1-16.7,48.1-25,72.2
				c0.9-0.1,1.8-0.3,2.7-0.4c-8.3-14.4-16.7-28.9-25-43.3c-0.4-0.7-1.4-0.9-2.1-0.5c-16.7,9.6-33.3,19.2-50,28.9
				c-0.5,0.3-0.7,0.8-0.7,1.3c0,22.7,0,45.5,0,68.2c0,36.3,0,72.5,0,108.8c0,8.4,0,16.7,0,25.1c0,1.2,1.3,1.8,2.3,1.2
				c10.6-6.1,21.2-12.2,31.8-18.4c5.5-3.2,11-6.3,16.5-9.5c2.6-1.5,2.4-2.6,2.4-5.5c0-23,0-46,0-69c0-14.4,0-28.8,0-43.2
				c-0.7,0.5-1.5,0.9-2.2,1.4c8.3,4.8,16.7,9.6,25,14.4c0.7,0.4,1.6,0.1,2-0.6c8.3-14.4,16.7-28.9,25-43.3c-0.9-0.2-1.9-0.4-2.8-0.7
				c0,33.7,0,67.3,0,101c0,4.8,0,9.6,0,14.5c0,1.2,1.3,1.8,2.3,1.2c16.7-9.6,33.3-19.2,50-28.9c0.5-0.3,0.7-0.8,0.7-1.3
				c0-21.9,0-43.8,0-65.7c0-34.5,0-69,0-103.6c0-10.9,0-21.9,0-32.8C671.5,138.9,668.5,139,668.5,140.9L668.5,140.9z"/>
		</g>
	</g>
	<g>
		<g>
			<path class="st3" d="M230.8,191.1c0,9.8,0,19.5,0,29.3c0.7-0.5,1.5-0.9,2.2-1.4c-8.1-5-16.1-10.7-24.5-15.1
				c1.3,0.7,0.3,1.7,0.8,0.2c0.2-0.9,0-2.3,0-3.2c0-3.1,0-6.3,0-9.4c0-4.9,0-9.8,0-14.6c-0.7,0.5-1.5,0.9-2.2,1.4
				c8.2,4.7,16.3,9.4,24.5,14.1c1.7,1,3.1-1.7,1.4-2.6c-8.2-4.7-16.3-9.4-24.5-14.2c-1-0.6-2.2,0.3-2.2,1.4c0,5.2,0,10.4,0,15.6
				c0,3.2,0,6.3,0,9.5c0,1.2-0.4,3,0.3,4.1c0.6,0.9,2.5,1.6,3.4,2.2c2.8,1.7,5.7,3.5,8.5,5.2c4.4,2.7,8.7,5.4,13.1,8.1
				c1,0.6,2.2-0.3,2.2-1.4c0-9.8,0-19.5,0-29.3C233.7,189.1,230.8,189.1,230.8,191.1z"/>
		</g>
	</g>
	<g>
		<g>
			<path class="st3" d="M169.5,113.2c24.6,14.3,49.3,28.4,73.7,42.8c0.3,0.1,0.6,0.3,0.8,0.5c-1.1-1-0.1,0.2,0.2,0.8
				c1.4,2.8,3.2,5.5,4.8,8.2c4.8,8.2,9.6,16.5,14.4,24.7c1.6,2.7,3.1,5.5,4.7,8.1c0.4,0.6,0.6,1.5,0.4,0.3c0.1,0.5,0,1.2,0,1.7
				c-0.3,7.7,0,15.5,0,23.2c0,9.7,0,19.4,0,29.1c0,0.8-0.3,2.5,0,3.2c0.1,0.1,0,0.4,0,0.5c-0.1-1.7,1.2-1.2-0.7-0.5
				c-3.8,1.4-7.6,4.4-11.1,6.4c-0.7,0.4-0.9,1.4-0.5,2.1c3.6,6.5,6.9,13.3,10.8,19.7c0.6,0.9,0.7,1.8,0.6,0.9c0.1,0.7,0,1.6,0,2.3
				c0,3.2,0.1,6.5,0.1,9.7c0.2,15.3,0.5,30.7,0.7,46c0.5-0.5,1-1,1.5-1.5c-11.1,0-22.2,0-33.4,0c-5.1,0-10.3-0.1-15.4,0
				c-1.9,0.1,0,0.3-1-0.1c-1.5-0.7-3-1.8-4.5-2.6c-11.6-6.8-23.1-13.6-34.7-20.4c-2.9-1.7-6.6-5-9.8-5.8c1.4,0.3,0.1,1.8,0.7,0.6
				c0.3-0.6,0-1.9,0-2.5c-0.1-49.3-0.2-98.5-0.4-147.8c0-17,0-34,0.2-51c0-1.9-3-1.9-3,0.1c-0.3,41.8-0.1,83.6,0,125.4
				c0.1,23.6,0.1,47.3,0.2,70.9c0,1.5-0.4,3.9,0,5.4c0.6,1.9,2.6,2.5,4.2,3.5c11.6,6.8,23.2,13.6,34.8,20.4c3.4,2,7.5,5.4,11.3,6.7
				c3.4,1.1,8.4,0.2,12,0.2c12.9,0,25.9,0,38.8,0c0.8,0,1.5-0.7,1.5-1.5c-0.2-15.7-0.5-31.5-0.7-47.2c-0.1-4,0.8-9.1-1-12.8
				c-3.3-6.8-7.4-13.4-11.1-20.1c-0.2,0.7-0.3,1.4-0.5,2.1c3.4-2,6.8-3.9,10.2-5.9c1.8-1,2.6-1.3,3-3.3c0.4-2.6,0-5.6,0-8.2
				c0-4.5,0-9.1,0-13.6c0-9.5,0-19,0-28.6c0-4,0.3-6.5-1.7-9.9c-4.5-7.7-8.9-15.4-13.4-23.1c-2.3-3.9-4.5-7.8-6.8-11.7
				c-1.1-1.9-2.1-4.4-3.5-6.1c-2.2-2.5-6.4-4-9.2-5.6c-7.8-4.6-15.7-9.1-23.5-13.7c-14.1-8.2-28.3-16.4-42.4-24.6
				C169.2,109.6,167.8,112.2,169.5,113.2z"/>
		</g>
	</g>
	<g>
		<g>
			<path class="st3" d="M230.8,277.2c0,9.8,0,19.5,0,29.3c0.7-0.5,1.5-0.9,2.2-1.4c-8.1-5-16.1-10.7-24.5-15.1
				c1.3,0.7,0.3,1.7,0.8,0.2c0.2-0.9,0-2.3,0-3.2c0-3.1,0-6.3,0-9.4c0-4.9,0-9.8,0-14.6c-0.7,0.5-1.5,0.9-2.2,1.4
				c8.2,4.7,16.3,9.4,24.5,14.1c1.7,1,3.1-1.7,1.4-2.6c-8.2-4.7-16.3-9.4-24.5-14.1c-1-0.6-2.2,0.3-2.2,1.4c0,5.2,0,10.4,0,15.6
				c0,3.2,0,6.3,0,9.5c0,1.2-0.4,3,0.3,4.1c0.6,0.9,2.5,1.6,3.4,2.2c2.8,1.7,5.7,3.5,8.5,5.2c4.4,2.7,8.7,5.4,13.1,8.1
				c1,0.6,2.2-0.3,2.2-1.4c0-9.8,0-19.5,0-29.3C233.7,275.2,230.8,275.2,230.8,277.2z"/>
		</g>
	</g>
	<g>
		<g>
			<path class="st3" d="M245.6,156.5c16.7-9.6,33.5-19.2,50.2-28.7c1.7-1,0.1-3.5-1.6-2.6c-16.7,9.6-33.5,19.2-50.2,28.7
				C242.3,154.9,243.9,157.4,245.6,156.5L245.6,156.5z"/>
		</g>
	</g>
	<g>
		<g>
			<path class="st3" d="M270.8,199.9c8.3-4.8,16.7-9.6,25-14.4c0.5-0.3,0.7-0.8,0.7-1.3c0,0,0,0,0,0c0-1.9-3-1.9-3,0.1
				c0-1.9,1.2-1.2-0.4-0.7c-1,0.3-2,1.1-2.8,1.6c-2.9,1.7-5.7,3.3-8.6,5c-4.2,2.4-8.3,4.8-12.5,7.2
				C267.5,198.3,269.1,200.9,270.8,199.9L270.8,199.9z"/>
		</g>
	</g>
	<g>
		<g>
			<path class="st3" d="M344.2,154c-16.7,9.6-33.3,19.2-50,28.9c-1.7,1-0.1,3.5,1.6,2.6c16.7-9.6,33.3-19.2,50-28.9
				C347.4,155.6,345.9,153.1,344.2,154L344.2,154z"/>
		</g>
	</g>
	<g>
		<g>
			<path class="st3" d="M394.2,182.9c-16.7,9.6-33.3,19.2-50,28.9c-1.7,1-0.1,3.5,1.6,2.6c16.7-9.6,33.3-19.2,50-28.9
				C397.4,184.5,395.9,181.9,394.2,182.9L394.2,182.9z"/>
		</g>
	</g>
	<g>
		<g>
			<path class="st3" d="M370.8,373.1c8.3-4.8,16.7-9.6,25-14.4c1.7-1,0.1-3.5-1.6-2.6c-8.3,4.8-16.7,9.6-25,14.4
				C367.5,371.5,369.1,374.1,370.8,373.1L370.8,373.1z"/>
		</g>
	</g>
	<g>
		<g>
			<path class="st3" d="M370.8,430.8c8.3-4.8,16.7-9.6,25-14.4c1.7-1,0.1-3.5-1.6-2.6c-8.3,4.8-16.7,9.6-25,14.4
				C367.5,429.2,369.1,431.8,370.8,430.8L370.8,430.8z"/>
		</g>
	</g>
	<g>
		<g>
			<path class="st3" d="M393.5,184.2c0,19.2,0,38.5,0,57.7c0,1.9,3,1.9,3-0.1c0-19.2,0-38.5,0-57.7
				C396.5,182.2,393.5,182.3,393.5,184.2L393.5,184.2z"/>
		</g>
	</g>
	<g>
		<g>
			<path class="st3" d="M445.7,269.5c-16.7-9.6-33.3-19.2-50-28.9c0,0.9,0.1,1.7,0.1,2.6c14.5-8.4,29.1-16.8,43.6-25.2
				c2.1-1.2,4.2-2.3,6.2-3.6c0.2-0.2-1.4-0.4-1.1,0.1c0.2,0.3,1,0.5,1.3,0.8c1.7,1.2,3.7,2.1,5.5,3.2c6.3,3.6,12.5,7.2,18.8,10.8
				c8.1,4.7,16.1,9.3,24.2,14c1.7,1,3.1-1.7,1.4-2.6c-13.6-7.9-27.3-15.8-40.9-23.6c-2.5-1.5-6.2-4.7-9.1-5.2
				c-1.7-0.3-3.1,1-4.5,1.8c-8.6,5-17.2,10-25.8,14.9c-7,4.1-14.1,8.1-21.1,12.2c-1,0.6-0.9,2.1,0.1,2.6c16.7,9.6,33.3,19.2,50,28.9
				C446,273.1,447.4,270.4,445.7,269.5L445.7,269.5z"/>
		</g>
	</g>
	<g>
		<g>
			<path class="st3" d="M445.7,471.5c-16-9.2-32-18.5-48-27.7c-0.6-0.4-1.3-0.9-2-1.2c1.2,0.5,0.1,1.6,0.8,0.6c0.3-0.4,0-2.3,0-2.8
				c0-5.7,0-11.5,0-17.2c0-6.1,0-12.1,0-18.2c0-33.2,0-66.5,0-99.7c0-21.2,0-42.4,0-63.6c0-1.9-3-1.9-3,0.1c0,34.7,0,69.3,0,104
				c0,18.1,0,36.2,0,54.3c0,6.1,0,12.3,0,18.4c0,5.9,0,11.8,0,17.6c0,2.5-1,7.1,0.8,9.1c1.8,1.9,5.7,3.3,8,4.6
				c5.5,3.2,11.1,6.4,16.6,9.6c8.5,4.9,17,9.8,25.4,14.7C446,475.1,447.4,472.5,445.7,471.5L445.7,471.5z"/>
		</g>
	</g>
	<g>
		<g>
			<path class="st3" d="M345.8,358.7c16.7-9.6,33.3-19.2,50-28.9c1.7-1,0.1-3.5-1.6-2.6c-16.7,9.6-33.3,19.2-50,28.9
				C342.5,357.1,344.1,359.6,345.8,358.7L345.8,358.7z"/>
		</g>
	</g>
	<g>
		<g>
			<path class="st3" d="M270.8,344.2c8.3-4.8,16.7-9.6,25-14.4c1.7-1,0.1-3.5-1.6-2.6c-8.3,4.8-16.7,9.6-25,14.4
				C267.5,342.6,269.1,345.2,270.8,344.2L270.8,344.2z"/>
		</g>
	</g>
	<g>
		<g>
			<path class="st3" d="M270.8,257.6c8.3-4.8,16.7-9.6,25-14.4c1.7-1,0.1-3.5-1.6-2.6c-8.3,4.8-16.7,9.6-25,14.4
				C267.5,256,269.1,258.6,270.8,257.6L270.8,257.6z"/>
		</g>
	</g>
	<g>
		<g>
			<path class="st3" d="M269.9,286c8.6-4.6,17.2-9.3,25.9-13.9c1.7-0.9,0.1-3.5-1.6-2.6c-8.6,4.6-17.2,9.3-25.9,13.9
				C266.6,284.3,268.2,286.9,269.9,286L269.9,286z"/>
		</g>
	</g>
	<g>
		<g>
			<path class="st3" d="M208.5,292.6c8.2-4.7,16.3-9.4,24.5-14.2c1.7-1,0.1-3.5-1.6-2.6c-8.2,4.7-16.3,9.4-24.5,14.1
				C205.3,291,206.8,293.5,208.5,292.6L208.5,292.6z"/>
		</g>
	</g>
	<g>
		<g>
			<path class="st3" d="M208.5,206.5c8.2-4.7,16.3-9.4,24.5-14.2c1.7-1,0.1-3.5-1.6-2.6c-8.2,4.7-16.3,9.4-24.5,14.1
				C205.3,204.9,206.8,207.4,208.5,206.5L208.5,206.5z"/>
		</g>
	</g>
	<g>
		<g>
			<path class="st3" d="M293.7,127.2c8.3,14.4,16.7,28.9,25,43.3c1,1.7,3.5,0.1,2.6-1.6c-8.3-14.4-16.7-28.9-25-43.3
				C295.3,124,292.7,125.6,293.7,127.2L293.7,127.2z"/>
		</g>
	</g>
	<g>
		<g>
			<path class="st3" d="M219.3,84.5c21.8,12.6,43.6,25.2,65.5,37.8c3.2,1.8,6.4,3.7,9.5,5.5c1.7,1,3.1-1.7,1.4-2.6
				c-21.8-12.6-43.6-25.2-65.5-37.8c-3.2-1.8-6.4-3.7-9.5-5.5C219,80.9,217.6,83.5,219.3,84.5L219.3,84.5z"/>
		</g>
	</g>
	<g>
		<g>
			<path class="st3" d="M171,113.2c16.6-9.6,33.2-19.2,49.8-28.7c1.7-1,0.1-3.5-1.6-2.6c-16.6,9.6-33.2,19.2-49.8,28.7
				C167.8,111.6,169.3,114.1,171,113.2L171,113.2z"/>
		</g>
	</g>
	<g>
		<g>
			<path class="st3" d="M344.3,156.6c16.7,9.6,33.3,19.2,50,28.9c1.7,1,3.1-1.7,1.4-2.6c-16.7-9.6-33.3-19.2-50-28.9
				C344,153,342.6,155.7,344.3,156.6L344.3,156.6z"/>
		</g>
	</g>
	<g>
		<g>
			<path class="st3" d="M468.4,199.4c16.9,9.8,33.9,19.6,50.8,29.4c1.7,1,3.1-1.7,1.4-2.6c-16.9-9.8-33.9-19.6-50.9-29.4
				C468.2,195.8,466.8,198.5,468.4,199.4L468.4,199.4z"/>
		</g>
	</g>
	<g>
		<g>
			<path class="st3" d="M519.3,171.1c16.7,9.6,33.3,19.2,50,28.9c1.7,1,3.1-1.7,1.4-2.6c-16.7-9.6-33.3-19.2-50-28.9
				C519,167.5,517.6,170.1,519.3,171.1L519.3,171.1z"/>
		</g>
	</g>
	<g>
		<g>
			<path class="st3" d="M620.7,168.4c-16.7-9.6-33.4-19.3-50.1-28.9c0,0.9,0.1,1.7,0.1,2.6c14.5-8.4,29-16.8,43.5-25.2
				c1.8-1,4.8-2.1,6.2-3.6c-0.7,0.7-1.6-0.8-0.5,0.4c0.7,0.8,2.3,1.3,3.2,1.8c8.6,5,17.3,10,25.9,14.9c6.8,3.9,13.6,7.8,20.4,11.8
				c0-0.9-0.1-1.7-0.1-2.6c-16.7,9.6-33.3,19.2-50,28.9c-1.7,1-0.1,3.5,1.6,2.6c16.7-9.6,33.3-19.2,50-28.9c1-0.6,0.9-2.1-0.1-2.6
				c-16.7-9.7-33.5-19.3-50.2-29c-0.5-0.3-1-0.2-1.5,0c-16.6,9.6-33.3,19.3-49.9,28.9c-1,0.6-0.9,2,0.1,2.6
				c16.7,9.6,33.4,19.3,50.1,28.9C621,172,622.4,169.4,620.7,168.4z"/>
		</g>
	</g>
	<g>
		<g>
			<path class="st3" d="M554.7,189.3c5.5-16,11.1-32.1,16.6-48.1c0.6-1.8-2.3-2.5-2.9-0.7c-5.5,16-11.1,32.1-16.6,48.1
				C551.1,190.4,554.1,191.1,554.7,189.3L554.7,189.3z"/>
		</g>
	</g>
	<g>
		<g>
			<path class="st3" d="M469.9,199.4c16.9-9.5,33.9-18.9,50.9-28.4c1.7-0.9,0.1-3.5-1.6-2.6c-17,9.5-33.9,18.9-50.9,28.4
				C466.7,197.8,468.2,200.3,469.9,199.4L469.9,199.4z"/>
		</g>
	</g>
	<g>
		<g>
			<path class="st3" d="M467.6,198.1c0,9.8,0,19.5,0,29.3c0,1.9,3,1.9,3-0.1c0-9.8,0-19.5,0-29.3
				C470.6,196.1,467.6,196.2,467.6,198.1L467.6,198.1z"/>
		</g>
	</g>
	<g>
		<g>
			<path class="st3" d="M494.3,415.7c8.3,5.1,16.7,10.1,25,15.2c1.7,1,3.1-1.6,1.4-2.6c-8.3-5.1-16.7-10.1-25-15.2
				C494,412.1,492.6,414.7,494.3,415.7L494.3,415.7z"/>
		</g>
	</g>
	<g>
		<g>
			<path class="st3" d="M569.3,344.3c16.7,9.6,33.3,19.2,50,28.9c1.7,1,3.1-1.7,1.4-2.6c-16.7-9.6-33.3-19.2-50-28.9
				C569,340.7,567.6,343.3,569.3,344.3L569.3,344.3z"/>
		</g>
	</g>
	<g>
		<g>
			<path class="st3" d="M719.2,312.8c-8.3,4.8-16.7,9.6-25,14.4c-1.7,1-0.1,3.5,1.6,2.6c8.3-4.8,16.7-9.6,25-14.4
				C722.4,314.4,720.9,311.8,719.2,312.8L719.2,312.8z"/>
		</g>
	</g>
	<g>
		<g>
			<path class="st3" d="M693.5,299.7c0,9.6,0,19.2,0,28.9c0,1.9,3,1.9,3-0.1c0-9.6,0-19.2,0-28.9
				C696.5,297.7,693.5,297.7,693.5,299.7L693.5,299.7z"/>
		</g>
	</g>
	<g>
		<g>
			<path class="st3" d="M718.5,284.3c0,10,0,19.9,0,29.9c0,1.9,3,1.9,3-0.1c0-10,0-19.9,0-29.9C721.5,282.3,718.5,282.3,718.5,284.3
				L718.5,284.3z"/>
		</g>
	</g>
	<g>
		<g>
			<path class="st3" d="M695.8,300.9c8.3-5.1,16.7-10.3,25-15.4c1.6-1,0.1-3.6-1.6-2.6c-8.3,5.1-16.7,10.3-25,15.4
				C692.6,299.4,694.1,301.9,695.8,300.9L695.8,300.9z"/>
		</g>
	</g>
	<g>
		<g>
			<path class="st3" d="M694.3,272.1c8.3,4.5,16.7,9,25,13.4c1.7,0.9,3.1-1.7,1.4-2.6c-8.3-4.5-16.7-9-25-13.4
				C694,268.5,692.6,271.2,694.3,272.1L694.3,272.1z"/>
		</g>
	</g>
	<g>
		<g>
			<path class="st3" d="M670.8,286.5c8.3-4.8,16.7-9.6,25-14.4c1.7-1,0.1-3.5-1.6-2.6c-8.3,4.8-16.7,9.6-25,14.4
				C667.5,284.9,669.1,287.5,670.8,286.5L670.8,286.5z"/>
		</g>
	</g>
	<g>
		<g>
			<path class="st3" d="M695.7,298.3c-8.3-4.8-16.7-9.6-25-14.4c-1.7-1-3.1,1.7-1.4,2.6c8.3,4.8,16.7,9.6,25,14.4
				C696,301.9,697.4,299.3,695.7,298.3L695.7,298.3z"/>
		</g>
	</g>
	<g>
		<g>
			<path class="st3" d="M695.7,327.2c-8.3-4.8-16.7-9.6-25-14.4c-1.7-1-3.1,1.7-1.4,2.6c8.3,4.8,16.7,9.6,25,14.4
				C696,330.8,697.4,328.2,695.7,327.2L695.7,327.2z"/>
		</g>
	</g>
	<g>
		<g>
			<path class="st3" d="M394.4,98.8c16.6,9.6,33.3,19.3,49.9,28.9c1.7,1,3.1-1.7,1.4-2.6c-16.6-9.6-33.3-19.3-49.9-28.9
				C394.1,95.2,392.7,97.9,394.4,98.8L394.4,98.8z"/>
		</g>
	</g>
	<g>
		<g>
			<path class="st3" d="M494.4,153.9c-16.6,9.6-33.2,19.2-49.8,28.8c0.8,0.4,1.5,0.8,2.3,1.2c-0.1-16.7-0.2-33.4-0.4-50.1
				c0-2,0.6-5.2-0.1-7.2c0.3,0.9-1.5,1,0.1,0.6c1-0.2,2.3-1.3,3.2-1.8c8.6-5,17.2-9.9,25.8-14.9c6.8-3.9,13.6-7.8,20.3-11.7
				c-0.8-0.4-1.5-0.8-2.3-1.2c0,19.2,0.1,38.4,0.1,57.7c0,1.9,3,1.9,3-0.1c0-19.2-0.1-38.4-0.1-57.7c0-1.2-1.3-1.8-2.3-1.2
				c-16.7,9.6-33.4,19.3-50.1,28.9c-0.5,0.3-0.7,0.8-0.7,1.3c0.1,19.2,0.3,38.3,0.4,57.5c0,1.2,1.3,1.8,2.3,1.2
				c16.6-9.6,33.2-19.2,49.8-28.8C497.7,155.5,496.1,152.9,494.4,153.9z"/>
		</g>
	</g>
	<g>
		<g>
			<path class="st3" d="M444.5,70.2c16.6,9.6,33.3,19.1,49.9,28.7c1.7,1,3.1-1.7,1.4-2.6c-16.6-9.6-33.3-19.1-49.9-28.7
				C444.2,66.5,442.8,69.2,444.5,70.2L444.5,70.2z"/>
		</g>
	</g>
	<g>
		<g>
			<path class="st3" d="M395.9,98.8c16.7-9.6,33.4-19.1,50.1-28.7c1.7-1,0.1-3.5-1.6-2.6c-16.7,9.6-33.4,19.1-50.1,28.7
				C392.6,97.2,394.2,99.7,395.9,98.8L395.9,98.8z"/>
		</g>
	</g>
	<g>
		<g>
			<path class="st3" d="M396.4,155.2c0.1-19.3,0.1-38.5,0.2-57.8c0-1.9-3-1.9-3,0.1c-0.1,19.3-0.1,38.5-0.2,57.8
				C393.4,157.2,396.4,157.2,396.4,155.2L396.4,155.2z"/>
		</g>
	</g>
	<g>
		<g>
			<path class="st3" d="M446.1,182.6c-16.8-9.6-33.7-19.1-50.5-28.7c-1.7-1-3.1,1.7-1.4,2.6c16.8,9.6,33.7,19.1,50.5,28.7
				C446.4,186.2,447.8,183.6,446.1,182.6L446.1,182.6z"/>
		</g>
	</g>
</g>
</svg>
